<svg xmlns="http://www.w3.org/2000/svg" width="76" height="47" viewBox="0 0 76 47"><defs><mask id="ljn3b" width="2" height="2" x="-1" y="-1"><path fill="#fff" d="M1 4h73v40H1z"/><path d="M1.911 8.048c0-2 2-4 4-4h64c2 0 4 2 4 4v32c0 2-2 4-4 4h-64c-2 0-4-2-4-4z"/></mask><filter id="ljn3a" width="97" height="65" x="-11" y="-8" filterUnits="userSpaceOnUse"><feOffset dy="1" in="SourceGraphic" result="FeOffset1060Out"/><feGaussianBlur in="FeOffset1060Out" result="FeGaussianBlur1061Out" stdDeviation="0.8 0.8"/></filter><linearGradient id="ljn3c" x1="37.91" x2="37.91" y1="4.05" y2="44.05" gradientUnits="userSpaceOnUse"><stop offset="0" stop-color="#f6f6f6"/><stop offset="1" stop-color="#efedef"/></linearGradient><clipPath id="ljn3d"><path fill="#fff" d="M1.911 8.048c0-2 2-4 4-4h64c2 0 4 2 4 4v32c0 2-2 4-4 4h-64c-2 0-4-2-4-4z"/></clipPath></defs><g><g><g><g filter="url(#ljn3a)"><path fill="none" d="M1.911 8.048c0-2 2-4 4-4h64c2 0 4 2 4 4v32c0 2-2 4-4 4h-64c-2 0-4-2-4-4z" mask="url(&quot;#ljn3b&quot;)"/><path fill-opacity=".16" d="M1.911 8.048c0-2 2-4 4-4h64c2 0 4 2 4 4v32c0 2-2 4-4 4h-64c-2 0-4-2-4-4z"/></g><path fill="url(#ljn3c)" d="M1.911 8.048c0-2 2-4 4-4h64c2 0 4 2 4 4v32c0 2-2 4-4 4h-64c-2 0-4-2-4-4z"/><path fill="none" stroke="#dcdbdd" stroke-miterlimit="50" stroke-width="2" d="M1.911 8.048c0-2 2-4 4-4h64c2 0 4 2 4 4v32c0 2-2 4-4 4h-64c-2 0-4-2-4-4z" clip-path="url(&quot;#ljn3d&quot;)"/></g><g><g><path fill="#585d5c" d="M42.993 15.748h8.142v1.976l-5.058 5.093h5.243v2.191h-8.81v-2.045l5.005-5.037h-4.522m-9.38-2.178h7.144v2.19h-4.09v1.32h3.491v2.068h-3.491v3.682h-3.054zm-7.987 7.07h1.29c.45 0 .762-.07.935-.218a.752.752 0 0 0 .253-.594c0-.225-.08-.41-.253-.548-.168-.138-.479-.212-.94-.212h-1.285zm0-3.538h1.084c.403 0 .674-.063.823-.19.145-.127.214-.311.214-.559 0-.219-.07-.392-.214-.518-.15-.127-.414-.19-.806-.19h-1.101zm-3.065-3.532h5.341c.905 0 1.602.225 2.091.68.497.455.739 1.02.739 1.688 0 .565-.18 1.05-.531 1.452-.236.271-.547.438-.94.495.612.099 1.079.347 1.407.75.323.404.484.904.484 1.504 0 .49-.115.933-.34 1.325a2.54 2.54 0 0 1-.944.934c-.248.144-.618.247-1.107.31-.629.082-1.05.122-1.262.122H22.56zm-7.97 2.293v4.667h.547c.565 0 .958-.056 1.182-.178.226-.114.403-.323.53-.622.133-.3.197-.801.197-1.504 0-.922-.146-1.544-.433-1.873-.288-.322-.777-.49-1.462-.49zm-3.041-2.293h4.264c.828 0 1.509.115 2.026.346.525.23.958.56 1.298.985.34.432.581.927.737 1.492a6.91 6.91 0 0 1 .226 1.775c0 .98-.116 1.747-.34 2.288a3.862 3.862 0 0 1-.946 1.383c-.404.37-.84.616-1.308.743a6.533 6.533 0 0 1-1.693.248H11.55z"/></g><g><path fill="#a2c800" d="M23.172 26.385c3.25 10.531 14.275 16.384 24.623 13.075 10.35-3.314 16.1-14.54 12.844-25.073C57.382 3.85 46.359-2.003 36.014 1.312c-6.125 1.959-10.92 6.844-12.842 13.075h.497C26.924 5.019 37.024.107 46.226 3.422c9.2 3.314 14.026 13.59 10.77 22.963-3.25 9.368-13.35 14.28-22.556 10.966-5.032-1.813-8.99-5.844-10.771-10.966z"/></g></g></g></g></svg>