<svg xmlns="http://www.w3.org/2000/svg" width="173" height="64" viewBox="0 0 173 64"><defs><mask id="7zxjb" width="2" height="2" x="-1" y="-1"><path fill="#fff" d="M2 1h169v60H2z"/><path d="M2 7c0-3 3-6 6-6h157c3 0 6 3 6 6v48c0 3-3 6-6 6H8c-3 0-6-3-6-6z"/></mask><filter id="7zxja" width="193" height="85" x="-10" y="-11" filterUnits="userSpaceOnUse"><feOffset dy="1" in="SourceGraphic" result="FeOffset1200Out"/><feGaussianBlur in="FeOffset1200Out" result="FeGaussianBlur1201Out" stdDeviation="0.8 0.8"/></filter><linearGradient id="7zxjc" x1="86.5" x2="86.5" y1="1" y2="61" gradientUnits="userSpaceOnUse"><stop offset="0" stop-color="#f6f6f6"/><stop offset="1" stop-color="#efedef"/></linearGradient><clipPath id="7zxjd"><path fill="#fff" d="M2 7c0-3 3-6 6-6h157c3 0 6 3 6 6v48c0 3-3 6-6 6H8c-3 0-6-3-6-6z"/></clipPath></defs><g><g><g filter="url(#7zxja)"><path fill="none" d="M2 7c0-3 3-6 6-6h157c3 0 6 3 6 6v48c0 3-3 6-6 6H8c-3 0-6-3-6-6z" mask="url(&quot;#7zxjb&quot;)"/><path fill-opacity=".16" d="M2 7c0-3 3-6 6-6h157c3 0 6 3 6 6v48c0 3-3 6-6 6H8c-3 0-6-3-6-6z"/></g><path fill="url(#7zxjc)" d="M2 7c0-3 3-6 6-6h157c3 0 6 3 6 6v48c0 3-3 6-6 6H8c-3 0-6-3-6-6z"/><path fill="none" stroke="#dcdbdd" stroke-miterlimit="50" stroke-width="2" d="M2 7c0-3 3-6 6-6h157c3 0 6 3 6 6v48c0 3-3 6-6 6H8c-3 0-6-3-6-6z" clip-path="url(&quot;#7zxjd&quot;)"/></g><g><path fill="#2b3438" d="M74.497 32.881v16.454h-1.338V32.88h-5.254v-1.189h11.87v1.189z"/></g><g><path fill="#2b3438" d="M94.023 49.335v-8.302H84.83v8.302h-1.338V31.692h1.338v8.153h9.194v-8.153h1.34v17.643z"/></g><g><path fill="#2b3438" d="M106.86 49.483c-3.544 0-6.046-2.428-6.046-5.871v-11.92h1.336v11.746c0 2.923 1.885 4.856 4.71 4.856s4.707-1.933 4.707-4.856V31.692h1.34v11.92c0 3.443-2.503 5.871-6.047 5.871"/></g><g><path fill="#2b3438" d="M129.882 49.335l-10.188-15.339v15.339h-1.339V31.692h1.34l10.187 15.29v-15.29h1.339v17.643z"/></g><g><path fill="#2b3438" d="M136.918 49.335V31.692h10.706v1.19h-9.367v6.963h7.978v1.188h-7.978v7.113h9.367v1.189z"/></g><g><path fill="#2b3438" d="M163.508 49.335l-10.186-15.339v15.339h-1.339V31.692h1.34l10.185 15.29v-15.29h1.337v17.643z"/></g><g><path fill="#2b3438" d="M105.083 28.84a.965.965 0 0 1-1.93 0 .964.964 0 0 1 1.93 0"/></g><g><path fill="#2b3438" d="M110.636 28.84a.964.964 0 1 1-1.928.001.964.964 0 0 1 1.928-.002"/></g><g><path fill="none" stroke="#2b3438" stroke-miterlimit="50" stroke-width=".35" d="M59.854 8.347v43.647"/></g><g><path fill="#73aa17" d="M51.04 14.747a5.393 5.393 0 0 1-5.396 5.396 5.395 5.395 0 0 1-5.397-5.396 5.395 5.395 0 0 1 5.397-5.397 5.393 5.393 0 0 1 5.396 5.397"/></g><g><path fill="#129b70" d="M36.187 14.746a4.818 4.818 0 1 1-9.636 0 4.818 4.818 0 0 1 9.636 0"/></g><g><path fill="#009496" d="M36.765 28.208a5.396 5.396 0 1 1-10.793.004 5.396 5.396 0 0 1 10.793-.004"/></g><g><path fill="#0090df" d="M38.115 43.219a6.746 6.746 0 1 1-13.49.002 6.746 6.746 0 0 1 13.49-.002"/></g><g><path fill="#009496" d="M22.491 14.746a6.74 6.74 0 0 1-6.745 6.745 6.746 6.746 0 1 1 6.745-6.745"/></g><g><path fill="#0090df" d="M18.25 28.982a2.506 2.506 0 1 1-5.012.003 2.506 2.506 0 0 1 5.013-.003"/></g><g><path fill="#007bca" d="M17.287 43.219a1.54 1.54 0 1 1-3.084 0 1.542 1.542 0 0 1 3.084 0"/></g><g><path fill="#009496" d="M47.86 43.22a2.216 2.216 0 1 1-2.216-2.216c1.224 0 2.215.991 2.215 2.216"/></g><g><path fill="#129b70" d="M46.8 28.981a1.157 1.157 0 1 1 0 0"/></g></g></svg>