<svg xmlns="http://www.w3.org/2000/svg" width="109" height="69" viewBox="0 0 109 69"><defs><mask id="hj12b" width="2" height="2" x="-1" y="-1"><path fill="#fff" d="M2 6h105v60H2z"/><path d="M2 12c0-3 3-6 6-6h93c3 0 6 3 6 6v48c0 3-3 6-6 6H8c-3 0-6-3-6-6z"/></mask><filter id="hj12a" width="129" height="85" x="-10" y="-6" filterUnits="userSpaceOnUse"><feOffset dy="1" in="SourceGraphic" result="FeOffset1056Out"/><feGaussianBlur in="FeOffset1056Out" result="FeGaussianBlur1057Out" stdDeviation="0.8 0.8"/></filter><linearGradient id="hj12c" x1="54.5" x2="54.5" y1="6" y2="66" gradientUnits="userSpaceOnUse"><stop offset="0" stop-color="#f6f6f6"/><stop offset="1" stop-color="#efedef"/></linearGradient><clipPath id="hj12d"><path fill="#fff" d="M2 12c0-3 3-6 6-6h93c3 0 6 3 6 6v48c0 3-3 6-6 6H8c-3 0-6-3-6-6z"/></clipPath></defs><g><g><g filter="url(#hj12a)"><path fill="none" d="M2 12c0-3 3-6 6-6h93c3 0 6 3 6 6v48c0 3-3 6-6 6H8c-3 0-6-3-6-6z" mask="url(&quot;#hj12b&quot;)"/><path fill-opacity=".16" d="M2 12c0-3 3-6 6-6h93c3 0 6 3 6 6v48c0 3-3 6-6 6H8c-3 0-6-3-6-6z"/></g><path fill="url(#hj12c)" d="M2 12c0-3 3-6 6-6h93c3 0 6 3 6 6v48c0 3-3 6-6 6H8c-3 0-6-3-6-6z"/><path fill="none" stroke="#dcdbdd" stroke-miterlimit="50" stroke-width="2" d="M2 12c0-3 3-6 6-6h93c3 0 6 3 6 6v48c0 3-3 6-6 6H8c-3 0-6-3-6-6z" clip-path="url(&quot;#hj12d&quot;)"/></g><g><path fill="#585d5c" d="M61.673 23.944h11.826v2.87l-7.348 7.398h7.616v3.182H60.97v-2.971l7.271-7.316h-6.568m-13.626-3.163h10.377v3.18h-5.94v1.917h5.07v3.005h-5.07v5.348h-4.437zm-11.6 10.268h1.874c.654 0 1.105-.1 1.356-.316.242-.21.368-.502.368-.863a.967.967 0 0 0-.368-.796c-.243-.2-.695-.308-1.365-.308h-1.866zm0-5.138h1.574c.585 0 .978-.091 1.196-.275.21-.185.31-.453.31-.813 0-.318-.1-.57-.31-.753-.218-.184-.602-.276-1.171-.276h-1.6zm-4.452-5.13h7.757c1.314 0 2.327.326 3.038.987.722.661 1.072 1.482 1.072 2.452 0 .82-.26 1.525-.77 2.11-.344.393-.795.636-1.365.719.888.142 1.566.503 2.043 1.088.469.586.703 1.314.703 2.185 0 .711-.167 1.356-.494 1.925a3.69 3.69 0 0 1-1.372 1.356c-.36.21-.897.36-1.607.452-.914.118-1.524.176-1.834.176h-7.171zm-11.577 3.33v6.779h.795c.82 0 1.39-.082 1.715-.258.33-.167.587-.47.772-.904.192-.435.284-1.164.284-2.185 0-1.34-.21-2.242-.627-2.72-.42-.468-1.13-.712-2.125-.712zM16 23.944h6.193c1.204 0 2.193.166 2.944.502a4.877 4.877 0 0 1 1.885 1.43 6.046 6.046 0 0 1 1.071 2.168c.217.82.327 1.683.327 2.578 0 1.424-.168 2.538-.494 3.323a5.604 5.604 0 0 1-1.373 2.009c-.586.537-1.22.895-1.9 1.079-.904.244-1.725.36-2.46.36H16z"/></g><g><path fill="#a2c800" d="M32.882 39.68c4.92 15.796 21.616 24.576 37.286 19.612 15.67-4.972 24.378-21.809 19.449-37.61C84.684 5.879 67.992-2.902 52.327 2.069c-9.274 2.939-16.534 10.266-19.445 19.613h.752C38.563 7.63 53.858.262 67.791 5.234c13.932 4.971 21.24 20.386 16.31 34.446-4.922 14.052-20.216 21.419-34.157 16.449-7.62-2.72-13.612-8.766-16.31-16.45z"/></g></g></svg>