<?xml version="1.0" encoding="utf-8"?>
<!-- Generator: Adobe Illustrator 27.7.0, SVG Export Plug-In . SVG Version: 6.00 Build 0)  -->
<svg version="1.1" id="Ebene_1" xmlns="http://www.w3.org/2000/svg" xmlns:xlink="http://www.w3.org/1999/xlink" x="0px" y="0px"
	 viewBox="0 0 117 44" style="enable-background:new 0 0 117 44;" xml:space="preserve">
<style type="text/css">
	.st0{filter:url(#qck0a);}
	.st1{opacity:0.16;}
	.st2{fill:url(#SVGID_1_);}
	
		.st3{clip-path:url(#SVGID_00000062164830015442137920000010952026830957300356_);fill:none;stroke:#DCDBDD;stroke-width:2;stroke-miterlimit:50;}
	.st4{fill:#003869;}
</style>
<filter  filterUnits="userSpaceOnUse" height="65" id="qck0a" width="138" x="-10" y="-11">
	<feOffset  dy="1" in="SourceGraphic" result="FeOffset1294Out"></feOffset>
	<feGaussianBlur  in="FeOffset1294Out" result="FeGaussianBlur1295Out" stdDeviation="0.8 0.8"></feGaussianBlur>
</filter>
<g>
	<g>
		<g>
			<g class="st0">
				<g>
					<path class="st1" d="M2.4,5c0-2,2-4,4-4h104.7c2,0,4,2,4,4v32c0,2-2,4-4,4H6.4c-2,0-4-2-4-4L2.4,5z"/>
				</g>
			</g>
			
				<linearGradient id="SVGID_1_" gradientUnits="userSpaceOnUse" x1="58.7695" y1="44.952" x2="58.7695" y2="4.952" gradientTransform="matrix(1 0 0 -1 0 46)">
				<stop  offset="0" style="stop-color:#F6F6F6"/>
				<stop  offset="1" style="stop-color:#EFEDEF"/>
			</linearGradient>
			<path class="st2" d="M2.4,5c0-2,2-4,4-4h104.7c2,0,4,2,4,4v32c0,2-2,4-4,4H6.4c-2,0-4-2-4-4L2.4,5z"/>
			<g>
				<defs>
					<path id="SVGID_00000110444541964055315760000012091270685972828603_" d="M2.4,5c0-2,2-4,4-4h104.7c2,0,4,2,4,4v32c0,2-2,4-4,4
						H6.4c-2,0-4-2-4-4L2.4,5z"/>
				</defs>
				<clipPath id="SVGID_00000008134616915315318950000008386656618852208813_">
					<use xlink:href="#SVGID_00000110444541964055315760000012091270685972828603_"  style="overflow:visible;"/>
				</clipPath>
				
					<path style="clip-path:url(#SVGID_00000008134616915315318950000008386656618852208813_);fill:none;stroke:#DCDBDD;stroke-width:2;stroke-miterlimit:50;" d="
					M2.4,5c0-2,2-4,4-4h104.7c2,0,4,2,4,4v32c0,2-2,4-4,4H6.4c-2,0-4-2-4-4L2.4,5z"/>
			</g>
		</g>
	</g>
</g>
<g id="BfR">
	<path class="st4" d="M51.6,33.2V11.6h7.5c2.6,0,4.6,0.5,5.9,1.5c1.3,1,2,2.5,2,4.4c0,1.1-0.3,2-0.8,2.8c-0.5,0.8-1.3,1.4-2.3,1.8
		c1.1,0.3,2,0.8,2.6,1.7c0.6,0.8,1,1.9,1,3.1c0,2.1-0.7,3.6-2,4.7c-1.3,1.1-3.2,1.6-5.6,1.6L51.6,33.2L51.6,33.2z M56,20.6h3.3
		c2.2,0,3.4-0.9,3.4-2.7c0-1-0.3-1.7-0.8-2.1c-0.6-0.4-1.5-0.6-2.7-0.6H56L56,20.6L56,20.6z M56,23.8v5.8h3.8c1,0,1.9-0.2,2.4-0.7
		c0.6-0.5,0.9-1.2,0.9-2.1c0-2-1-3-3.1-3H56z M72.1,33.2l0-12.2h-2.4v-3.1h2.4v-1.4c0-1.8,0.5-3.2,1.5-4.2c1-1,2.5-1.5,4.3-1.5
		c0.6,0,1.3,0.1,2.2,0.3l0,3.3c-0.4-0.1-0.8-0.1-1.3-0.1c-1.6,0-2.4,0.8-2.4,2.3v1.3h3.4V21h-3.4v12.2L72.1,33.2L72.1,33.2z
		 M91.2,25.3h-3.5v7.9h-4.4V11.6h8c2.5,0,4.5,0.6,5.9,1.7c1.4,1.1,2.1,2.7,2.1,4.8c0,1.5-0.3,2.7-1,3.7c-0.6,1-1.6,1.8-2.9,2.3
		l4.7,8.8v0.2h-4.8L91.2,25.3z M87.7,21.7h3.6c1.1,0,2-0.3,2.6-0.8c0.6-0.6,0.9-1.3,0.9-2.3c0-1-0.3-1.8-0.9-2.4
		c-0.6-0.6-1.5-0.9-2.7-0.9h-3.6L87.7,21.7L87.7,21.7z"/>
</g>
<g id="Bildmarke_00000139976245047596711020000003529304333643439525_">
	<path class="st4" d="M44.1,11.6v21.5H23.6c0,0,0.1-1.5,0.8-3.7h-4.6V8.9h20.5v3.6C42.6,11.7,44.1,11.6,44.1,11.6z M42.9,32V13
		c-2.2,0.5-6.9,2.1-11.4,6.8c-4.5,4.8-6,9.8-6.5,12.1H42.9z"/>
	<path class="st4" d="M38.3,30.8L38.3,30.8c-0.9-1.7-1.3-3.4-1.4-5.3c-0.1-1.2,0-2.4,0.3-3.6l0.1-0.3l0,0c1.1-0.3,2.2-0.2,3.5,0.1
		c0.3,0.1,0.7,0.2,1,0.3l0.1,0l-0.2,0.3l-0.1,0l-2.7,0c0,0-0.3,0-0.4,0.1c-0.1,0.1-0.2,0.2-0.3,0.4c-0.3,0.8-0.2,1.6-0.2,2.5
		c0.1,1.5,0.6,3.9,1.2,5.3l0,0.1l-0.5,0L38.3,30.8L38.3,30.8z M34.7,30.8L34.7,30.8c0.9-1.7,1.3-3.4,1.4-5.3c0.1-1.2,0-2.4-0.3-3.6
		l-0.1-0.3l0,0c-1.1-0.3-2.2-0.2-3.5,0.1c-0.3,0.1-0.7,0.2-1,0.3l-0.1,0l0.2,0.3l0.1,0l2.7,0c0,0,0.3,0,0.4,0.1
		c0.1,0.1,0.2,0.2,0.3,0.4c0.3,0.8,0.2,1.6,0.2,2.5c-0.1,1.5-0.6,3.9-1.2,5.3l0,0.1l0.5,0L34.7,30.8L34.7,30.8z M36.5,18
		c-0.6,0-1.1,0.5-1.1,1.2c0,0.7,0.5,1.2,1.1,1.2c0.6,0,1.1-0.5,1.1-1.2C37.6,18.5,37.1,18,36.5,18z"/>
</g>
</svg>
