<?xml version="1.0" encoding="UTF-8"?>
<svg id="Ebene_1" xmlns="http://www.w3.org/2000/svg" xmlns:xlink="http://www.w3.org/1999/xlink" version="1.1" viewBox="0 0 88 44">
  <!-- Generator: Adobe Illustrator 30.0.0, SVG Export Plug-In . SVG Version: 2.1.1 Build 123)  -->
  <defs>
    <style>
      .st0, .st1 {
        fill: none;
      }

      .st2 {
        fill: url(#Unbenannter_Verlauf);
      }

      .st3 {
        fill-opacity: .16;
      }

      .st4 {
        fill: #97b8e1;
      }

      .st5 {
        fill: #5d9ad2;
      }

      .st6 {
        fill: #fefefe;
      }

      .st7 {
        fill: #0069b3;
      }

      .st1 {
        stroke: #dcdbdd;
        stroke-miterlimit: 50;
        stroke-width: 2px;
      }

      .st8 {
        clip-path: url(#clippath);
      }
    </style>
    <linearGradient id="Unbenannter_Verlauf" data-name="Unbenannter Verlauf" x1="43.75" y1="44.95" x2="43.75" y2="4.95" gradientTransform="translate(0 46) scale(1 -1)" gradientUnits="userSpaceOnUse">
      <stop offset="0" stop-color="#f6f6f6"/>
      <stop offset="1" stop-color="#efedef"/>
    </linearGradient>
    <clipPath id="clippath">
      <rect class="st0" x="1.75" y="1.05" width="84" height="40" rx="4" ry="4"/>
    </clipPath>
  </defs>
  <g>
    <g>
      <path class="st0" d="M1.75,5.05C1.75,3.05,3.75,1.05,5.75,1.05h76c2,0,4,2,4,4v32c0,2-2,4-4,4H5.75c-2,0-4-2-4-4V5.05Z"/>
      <path class="st3" d="M1.75,5.05C1.75,3.05,3.75,1.05,5.75,1.05h76c2,0,4,2,4,4v32c0,2-2,4-4,4H5.75c-2,0-4-2-4-4V5.05Z"/>
    </g>
    <path class="st2" d="M1.75,5.05C1.75,3.05,3.75,1.05,5.75,1.05h76c2,0,4,2,4,4v32c0,2-2,4-4,4H5.75c-2,0-4-2-4-4V5.05Z"/>
    <g class="st8">
      <path class="st1" d="M1.75,5.05C1.75,3.05,3.75,1.05,5.75,1.05h76c2,0,4,2,4,4v32c0,2-2,4-4,4H5.75c-2,0-4-2-4-4V5.05Z"/>
    </g>
  </g>
  <g>
    <path class="st6" d="M37.53,11.09l-14.31-5.68-4.45,14.01,18.76-8.33ZM10.74,19.99l6.62-.27,4.39-13.7-11.01,13.97ZM55.02,12.01h-11.24v19.88h3.8v-9.21h7.06v-2.3h-7.06v-6.1h7.44v-2.26ZM61.78,12.01h-3.76v19.88h11.2v-2.38h-7.44V12.01ZM75.4,12.01h-3.76v19.88h3.76V12.01ZM36.41,31.85l1.77-19.72-18.99,8.4,17.23,11.32ZM35.68,32.84l-17.34-11.36.46,16.08,16.88-4.72Z"/>
    <g>
      <g>
        <g>
          <polygon class="st4" points="36.41 31.85 19.18 20.53 38.18 12.12 36.41 31.85"/>
          <polygon class="st7" points="35.68 32.84 18.8 37.56 18.34 21.49 35.68 32.84"/>
        </g>
        <g>
          <polygon class="st5" points="37.53 11.09 18.76 19.41 23.21 5.41 37.53 11.09"/>
          <polygon class="st7" points="10.74 19.99 21.75 6.02 17.36 19.72 10.74 19.99"/>
        </g>
      </g>
      <g>
        <polygon class="st7" points="55.02 12.01 55.02 14.27 47.58 14.27 47.58 20.37 54.64 20.37 54.64 22.68 47.58 22.68 47.58 31.88 43.78 31.88 43.78 12.01 55.02 12.01"/>
        <g>
          <polygon class="st7" points="61.78 12.01 61.78 29.51 69.22 29.51 69.22 31.88 58.02 31.88 58.02 12.01 61.78 12.01"/>
          <rect class="st7" x="71.64" y="12.01" width="3.76" height="19.88"/>
        </g>
      </g>
    </g>
  </g>
</svg>