<svg xmlns="http://www.w3.org/2000/svg" width="84" height="52" viewBox="0 0 84 52"><defs><mask id="768pb" width="2" height="2" x="-1" y="-1"><path fill="#fff" d="M2 9h81v40H2z"/><path d="M2.33 13.048c0-2 2-4 4-4h72c2 0 4 2 4 4v32c0 2-2 4-4 4h-72c-2 0-4-2-4-4z"/></mask><filter id="768pa" width="105" height="65" x="-10" y="-3" filterUnits="userSpaceOnUse"><feOffset dy="1" in="SourceGraphic" result="FeOffset1098Out"/><feGaussianBlur in="FeOffset1098Out" result="FeGaussianBlur1099Out" stdDeviation="0.8 0.8"/></filter><linearGradient id="768pc" x1="42.33" x2="42.33" y1="9.05" y2="49.05" gradientUnits="userSpaceOnUse"><stop offset="0" stop-color="#f6f6f6"/><stop offset="1" stop-color="#efedef"/></linearGradient><clipPath id="768pd"><path fill="#fff" d="M2.33 13.048c0-2 2-4 4-4h72c2 0 4 2 4 4v32c0 2-2 4-4 4h-72c-2 0-4-2-4-4z"/></clipPath><radialGradient id="768pf" cx="3540.68" cy="1334.14" r="2844.63" gradientUnits="userSpaceOnUse"><stop offset="0" stop-color="#165a37"/><stop offset="1" stop-color="#99d420"/></radialGradient><clipPath id="768pe"><path d="M18.789 31.503c-.891 1.035-2.782 2.714-4.04 3.848l.513.763c2.606-2.022 6.2-5.603 7.318-8.797 2.528-7.228.101-10.919-1.889-14.533-1.598-2.903-2.775-5.53-2.856-7.338C17.676 1.9 19.327.369 19.1.192c-.25-.19-3.686 3.16-5.912 6.248-2.113 2.931-3.359 6.58-3.22 8.9.385 6.358 7.161 9.205 9.022 14.683.975-1.497 1.433-2.953 1.695-4.398.869-4.797-1.122-8.801-2.628-11.654-2.477-4.689-1.535-6.214-1.313-7.047-.11 4.326 2.9 7.25 4.268 11.245 1.539 4.493.933 9.661-2.224 13.334"/></clipPath></defs><g><g><g filter="url(#768pa)"><path fill="none" d="M2.33 13.048c0-2 2-4 4-4h72c2 0 4 2 4 4v32c0 2-2 4-4 4h-72c-2 0-4-2-4-4z" mask="url(&quot;#768pb&quot;)"/><path fill-opacity=".16" d="M2.33 13.048c0-2 2-4 4-4h72c2 0 4 2 4 4v32c0 2-2 4-4 4h-72c-2 0-4-2-4-4z"/></g><path fill="url(#768pc)" d="M2.33 13.048c0-2 2-4 4-4h72c2 0 4 2 4 4v32c0 2-2 4-4 4h-72c-2 0-4-2-4-4z"/><path fill="none" stroke="#dcdbdd" stroke-miterlimit="50" stroke-width="2" d="M2.33 13.048c0-2 2-4 4-4h72c2 0 4 2 4 4v32c0 2-2 4-4 4h-72c-2 0-4-2-4-4z" clip-path="url(&quot;#768pd&quot;)"/></g><g><g><g><g><g><g><g/><g clip-path="url(#768pe)"><g><g><g><g><path fill="url(#768pf)" d="M6.811-.28h83.113v52.626H6.81V-.28"/></g></g></g></g></g></g></g></g><g><g><path fill="#432012" d="M21.448 42.301a40.048 40.048 0 0 1-2.196 1.883c-.015-.591-.137-1.221-.345-1.883h2.541"/></g></g><g><g><path fill="#652a12" d="M23.57 40.166c-.43.478-.879.944-1.34 1.397h-3.578a16.46 16.46 0 0 0-.63-1.397h5.549"/></g></g><g><g><path fill="#7a3c13" d="M25.715 37.766a25.248 25.248 0 0 1-1.289 1.662h-6.58a35.185 35.185 0 0 0-.976-1.662h8.845"/></g></g><g><g><path fill="#8f5013" d="M27.364 35.157a19.616 19.616 0 0 1-1.147 2.001h-9.813c-.231-.358-.47-.722-.715-1.09.38-.296.75-.6 1.114-.911h10.56"/></g></g><g><g><path fill="#a66912" d="M28.33 32.017a15.383 15.383 0 0 1-.843 2.454H17.415a34.68 34.68 0 0 0 2.131-2.128c.098-.108.193-.217.287-.326h8.497"/></g></g><g><g><path fill="#c28510" d="M28.669 28.256a13.118 13.118 0 0 1-.227 3.086h-8.044a20.113 20.113 0 0 0 2.056-3.086"/></g></g><g><g><path fill="#dba30c" d="M27.858 23.566c.384 1.327.634 2.681.736 4.03H22.79a14.705 14.705 0 0 0 1.248-4.03h3.82"/></g></g><g><g><path fill="#fbc707" d="M23.128 15.262c2.013 2.17 3.564 4.853 4.502 7.698h-3.496c.25-2.41-.096-4.948-1.006-7.698"/></g></g><g><g><path fill="#165096" d="M16.683 32.022c-.765.722-1.567 1.416-2.343 2.114-.476-.695-.96-1.4-1.443-2.114h3.786"/></g></g><g><g><path fill="#1268af" d="M17.636 28.256c.338.612.615 1.258.807 1.95-.135.203-.3.389-.463.57-.176.191-.356.38-.54.566h-5.038a72.424 72.424 0 0 1-1.958-3.086h7.192"/></g></g><g><g><path fill="#0c83c9" d="M13.75 23.566c1.202 1.281 2.48 2.564 3.44 4.03h-7.176c-.766-1.34-1.442-2.689-1.958-4.03h5.695"/></g></g><g><g><path fill="#05a1e6" d="M10.076 9.739c-.673 2.033-1.056 4.07-1.021 5.64.064 2.698 2.184 5.555 4.02 7.662H7.788C7.293 21.589 7 20.15 7 18.745c0-3.54.992-6.742 3.076-9.006"/></g></g><g><g><path fill="#99d420" d="M19.101.192c-.25-.19-3.686 3.16-5.912 6.247-2.113 2.932-3.359 6.58-3.22 8.9.167 2.756 1.535 4.852 3.182 6.79-.275-.429-2.51-3.323-1.497-8.516C12.77 7.887 18.7.62 19.1.193"/></g></g><g><g><path fill="#165096" d="M32.044 23.243h6.142v9.53c0 5.18-2.393 9.152-8.093 9.152l-1.988.002c2.565-3.088 3.939-4.83 3.939-9.008v-9.676m6.142-.737h-6.142v-5.492h6.142zm16.902 3.861l6.747 11.065-6.373.02-5.937-9.962h-.061v9.895h-6.138V17.014h6.138v8.412h.06l5.96-8.477 6.19.006zm16.57 11.018h-6.141V23.243h6.142zm0-14.879h-6.141v-5.492h6.142z"/></g></g></g></g></g></g></svg>