<?xml version="1.0" encoding="UTF-8"?><svg id="Ebene_1" xmlns="http://www.w3.org/2000/svg" width="199" height="99" viewBox="0 0 199 99"><defs><style>.cls-1{fill:#fff;}.cls-2{fill:#fc0;}.cls-3{fill:red;}</style></defs><rect class="cls-1" x="-.5" y="0" width="200" height="99"/><path d="m21.65,16.17c.04-.33.06-.67.06-1.02,0-.19,0-.41-.02-.66,2.95-.04,5.54-2.17,5.54-4.61,0-1.24-.81-2.18-1.27-2.74.1-.02.21-.05.31-.07.43.38,1.66,1.71,1.66,3.4,0,2.93-2.93,5.66-6.28,5.72m-2.97-10.21c-.05-.33-.18-.62-.37-.88.01-.3.13-.58.61-.35-.26.27-.06.74-.06.74,0,0,.53-.25.42-.6.79.19.22,1.25-.61,1.09m-.69,1.51c-.11-.44-.33-.89-.62-1.23-.26-.31-.69-.67-1.27-.67-.26,0-.71.12-.99.24-.11-.19-.31-.66-.31-.86s.36-.43,1.06-.43c1.53,0,2.44.69,2.44,1.85,0,.41-.16.78-.31,1.11m3.92,19.69c.18,0,.26.03.37.07.44,1.2,2.13,3.45,2.21,3.55v.02s.04,0,.04,0c.42-.07,1.48-.23,2.37-.23h.02c.1,0,.21,0,.28.07.06.06.09.16.09.3,0,.22-.09.6-.21.76-.31-.34-.82-.49-1.62-.49-.24,0-.53.07-.69.11h-.06s-.07.03-.07.03l.47.47c.72.72,1.34,1.34,1.34,1.75,0,.25-.24.57-.46.72-.05-.76-.81-1.77-1.56-2.34l-.06-.05v.27c-.02.18-.04.45-.04.74,0,1.44-.15,1.66-.65,1.66-.08,0-.19-.02-.27-.05.28-.35.39-.81.39-1.61v-.37s0-.3,0-.3c0-.33.03-.57.06-.77v-.11s-.06-.01-.06-.01c-.23-.03-.67-.09-1-.09-.71,0-1.19.07-1.54.39-.23-.19-.47-.51-.47-.71,0-.3.19-.32.43-.32.12,0,.24.02.4.04.31.05.77.11,1.72.11h.06l-.02-.06c-.24-.69-.9-1.69-1.96-2.98.09-.34.19-.57.52-.57m-9.14,3.55l-.02.06h.06c.95,0,1.41-.07,1.72-.11.16-.02.28-.04.4-.04.24,0,.43.02.43.32,0,.2-.24.52-.47.71-.35-.33-.83-.39-1.54-.39-.33,0-.77.06-1,.09h-.04s-.04.01-.04.01v.11c.04.2.08.44.08.77v.3s0,.37,0,.37c0,.81.11,1.26.39,1.61-.07.03-.19.05-.27.05-.5,0-.65-.22-.65-1.66,0-.29-.01-.56-.03-.74v-.27s-.08.05-.08.05c-.74.57-1.51,1.58-1.56,2.34-.22-.14-.47-.47-.47-.72,0-.41.62-1.03,1.34-1.75l.41-.41.05-.05-.14-.03c-.16-.04-.44-.11-.69-.11-.81,0-1.31.15-1.62.49-.11-.16-.21-.54-.21-.76,0-.14.03-.24.09-.3.07-.07.18-.07.28-.07h.02c.89,0,1.95.16,2.37.23h.03s.01-.01.01-.01c.07-.1,1.77-2.35,2.21-3.55.1-.04.19-.07.37-.07.33,0,.43.23.52.57-1.06,1.29-1.72,2.29-1.96,2.98m-4.58-20.24c0-1.69,1.23-3.02,1.66-3.4.1.03.21.05.31.07-.46.56-1.27,1.5-1.27,2.74,0,2.47,2.64,4.61,5.63,4.61-.02.21-.03.43-.03.66,0,.36.02.7.06,1.02-3.38-.02-6.35-2.76-6.35-5.72m22.66,5.2c1.52,2.4,2.7,2.36,4.49,2.36-1.48-1.14-2.46-2.59-2.93-3.33l-2.77-4.43c-.27-1.37-.98-2.65-2.04-3.6.36-.13.65-.28.83-.41-1.81,0-3.6-.92-4.58-.92-.63,0-1.04.38-1.04.88.04.56.61,1.13,1.68,1.13.24,0,.55-.03.89-.09.57.8,1.04,1.52,1.04,2.56,0,1.94-2.32,3.45-4.66,3.45-.13,0-.26,0-.39-.01-.21-.48-.92-1.29-.92-2.21,0-1.54,1.01-2.8,1.01-4.33,0-.95-.46-1.54-.64-1.78.29-.27.6-.59.68-.82-.17.07-.37.08-.65.08-1.12,0-2.04-.29-2.93-.29-.51,0-.65.16-.65.31,0,.05,0,.11.02.14-.19-.07-.37-.12-.58-.16-.26-.05-.55-.08-.85-.08-1.08,0-1.47.45-1.47.84,0,.33.26.93.55,1.39.42-.21.93-.36,1.16-.36.58,0,1.09.55,1.36,1.2-.39.05-.46.06-.85.06-1.06,0-1.77-.38-1.92-.38-.01,0-.04,0-.04.03,0,.15.3.54.89.75.78.28,1.94.4,2.13.44,0,.03-.2.4-.42.47-.05.01-.08.02-.14,0-.81-.16-1.04-.23-2.07-.62-.03-.01-.05,0-.05.04,0,.41,1.05,1.31,2,1.65-.79,1.01-1.77,2.04-2.24,3.61-.13,0-.26.01-.39.01-2.34,0-4.66-1.51-4.66-3.45,0-1.03.46-1.76,1.04-2.56.34.06.64.09.89.09,1.06,0,1.64-.57,1.68-1.13,0-.5-.41-.88-1.04-.88-.99,0-2.78.92-4.59.92.18.13.48.28.83.41-1.06.95-1.77,2.23-2.04,3.6l-2.77,4.43c-.47.74-1.45,2.2-2.93,3.33,1.79,0,2.98.04,4.49-2.36l1.42-2.27c.11.29.23.58.39.86l-2.82,4.52c-.47.75-1.44,2.19-2.93,3.33,1.79,0,2.98.04,4.49-2.35l2.43-3.89c.18.19.37.38.57.56l-3.43,5.49c-.47.75-1.44,2.19-2.93,3.33,1.79,0,2.98.04,4.49-2.35l3.34-5.35c.22.14.45.27.68.4l-4.08,6.53c-.47.75-1.44,2.19-2.93,3.33,1.79,0,2.98.04,4.49-2.35l4.2-6.73c.25.09.5.19.76.27l-4.75,7.6c-.46.74-1.45,2.2-2.93,3.33,1.79,0,2.98.04,4.49-2.35l5.06-8.1c.05,0,.1.02.15.03.14.44.23.85.23,1.25,0,2.54-1.67,4.79-3.67,6.53.13.06.35.08.56.08.41,0,.68-.02.87-.05-.46,1.06-1.46,2.42-1.97,3.12-.66-.12-1.61-.21-2.24-.21s-.73.38-.73.72c0,.59.28,1.07.6,1.33.12-.3.37-.71,1.57-.71.02,0,.07,0,.12,0-.35.39-1.46,1.29-1.46,2.01,0,.48.52,1.19,1.21,1.19-.04-.15-.04-.29-.04-.4,0-.58.52-1.27.95-1.74-.01.14,0,.13,0,.29,0,1.38.12,2.01,1,2.01.43,0,.73-.24.83-.31-.57-.52-.6-.93-.6-1.71,0-.2,0-.4,0-.67,0-.18,0-.41-.03-.58.31-.04.44-.04.68-.04,0,0,1.24-.1,1.54.55.34-.31.83-.75.83-1.23,0-.32-.15-.68-.79-.68-.24,0-1.01.15-1.64.15.17-.38.93-1.5,1.6-2.31.1.31.26.65.6.93.05-.52.35-2.17,1.17-3.13.09.65.22,1.32.22,2.73,0,3.43-.82,5.96-2.57,6.44.23.4.71.75,1.21.75.64,0,.99-.72,1.34-1.41.19.5.7,1.74,1.21,1.74s1.02-1.23,1.21-1.74c.35.68.7,1.41,1.34,1.41.5,0,.98-.36,1.21-.75-1.75-.48-2.57-3.01-2.57-6.44,0-1.41.13-2.08.22-2.73.82.96,1.12,2.61,1.17,3.13.35-.28.5-.62.6-.93.66.81,1.42,1.93,1.6,2.31-.64,0-1.4-.15-1.64-.15-.64,0-.79.36-.79.68,0,.48.49.92.83,1.23.3-.65,1.54-.55,1.54-.55.24,0,.37,0,.68.04-.03.17-.03.4-.03.58,0,.27,0,.47,0,.67,0,.77-.03,1.18-.6,1.71.1.07.4.31.83.31.87,0,1-.63,1-2.01,0-.17,0-.15,0-.29.44.48.95,1.16.95,1.74,0,.11,0,.25-.04.4.69,0,1.21-.72,1.21-1.19,0-.72-1.11-1.61-1.46-2.01.06,0,.1,0,.12,0,1.21,0,1.45.41,1.58.71.32-.26.6-.74.6-1.33,0-.34-.07-.72-.73-.72s-1.58.09-2.24.21c-.5-.7-1.5-2.07-1.97-3.12.19.03.46.05.87.05.21,0,.43-.02.56-.08-2-1.74-3.67-3.98-3.67-6.53,0-.41.1-.82.23-1.25.05-.01.1-.02.15-.03l5.06,8.1c1.51,2.4,2.7,2.35,4.49,2.35-1.47-1.13-2.46-2.59-2.93-3.33l-4.75-7.6c.26-.08.51-.17.76-.27l4.2,6.73c1.52,2.4,2.7,2.35,4.49,2.35-1.49-1.15-2.46-2.58-2.93-3.33l-4.08-6.53c.23-.13.46-.26.68-.4l3.34,5.35c1.52,2.4,2.7,2.35,4.49,2.35-1.49-1.14-2.46-2.58-2.93-3.33l-3.43-5.49c.2-.18.39-.37.57-.56l2.43,3.89c1.51,2.4,2.7,2.35,4.49,2.35-1.49-1.14-2.46-2.58-2.93-3.33l-2.82-4.52c.15-.28.28-.57.39-.86,0,0,1.42,2.27,1.42,2.27Z"/><path d="m44.34,5.37h5.18v29.61h-5.18V5.37Z"/><path class="cls-3" d="m44.34,34.98h5.18v29.61h-5.18v-29.61Z"/><path class="cls-2" d="m44.34,64.59h5.18v29.61h-5.18v-29.61Z"/><path d="m62.84,17.19v-5.28h4.03v-1.23h-4.03v-4.53h4.37l.11-1.23h-6.02v12.26h1.55Zm8.72-7.57c.91,0,1.39.69,1.39,1.87,0,.27-.02.5-.04.62h-3.09c.07-1.6.73-2.49,1.74-2.49Zm2.88,6.77l-.53-1.01c-.2.2-.78.75-1.79.75-1.44,0-2.22-.94-2.31-2.93h4.35c.05-.41.11-.92.11-1.65,0-2.04-.99-3.09-2.61-3.09-1.78,0-3.25,1.35-3.25,4.37,0,3.22,1.35,4.58,3.5,4.58,1.62,0,2.31-.76,2.54-1.01Zm4.73-.27c-.99,0-1.88-.78-1.88-3.13s1.05-3.27,2.38-3.27c.52,0,.85.14,1.1.3v5.26c-.2.28-.69.83-1.6.83Zm1.69.16h.04v.91h1.31V4.48l-1.44.16v4.09c-.27-.11-.66-.21-1.21-.21-1.81,0-3.77,1.1-3.77,4.55,0,3.11,1.37,4.35,2.98,4.35,1.35,0,1.92-.85,2.08-1.12Zm6.32-6.66c.91,0,1.39.69,1.39,1.87,0,.27-.02.5-.04.62h-3.09c.07-1.6.73-2.49,1.74-2.49Zm2.88,6.77l-.53-1.01c-.2.2-.78.75-1.79.75-1.44,0-2.22-.94-2.31-2.93h4.35c.05-.41.11-.92.11-1.65,0-2.04-.99-3.09-2.61-3.09-1.78,0-3.25,1.35-3.25,4.37,0,3.22,1.35,4.58,3.5,4.58,1.62,0,2.31-.76,2.54-1.01Zm5.67-7.75c-.14-.05-.37-.14-.78-.14-1.08,0-1.55.64-1.79,1.31h-.04v-1.15h-1.31v8.53h1.44v-6.25c.21-.57.69-1.15,1.6-1.15.39,0,.64.11.71.14l.18-1.28Zm4.65,3.75h-.44c-1.94,0-3.55.66-3.55,2.63,0,1.39.98,2.38,2.27,2.38,1.08,0,1.6-.73,1.79-1.15h.04c.02.43.04.69.05.94h1.37c-.04-.23-.11-1.05-.11-1.78v-3.89c0-2.15-.92-3.07-2.66-3.07-1.37,0-2.19.66-2.56,1.03l.6.96c.32-.28.89-.76,1.74-.76.92,0,1.46.46,1.46,1.9v.82Zm0,1.07v1.88c-.18.27-.59.83-1.42.83-.71,0-1.14-.44-1.14-1.31,0-.94.73-1.33,2.1-1.39l.46-.02Zm5.01-8.99l-1.44.16v10.69c0,1.51.66,2.03,1.62,2.03.64,0,1.01-.16,1.15-.23l-.12-1.07c-.09.04-.27.11-.53.11-.5,0-.68-.25-.68-.96V4.48Zm15.3.46l-2.9,8.47c-.27.78-.5,1.56-.52,2.1h-.04c-.04-.53-.27-1.33-.53-2.11l-2.9-8.46h-1.72v12.26h1.49v-5.83c0-1.47-.02-2.9-.07-3.45h.05c.11.53.53,1.9.99,3.29l2.03,5.99h1.23l2.03-5.99c.46-1.39.87-2.75.99-3.29h.05c-.05.52-.07,1.97-.07,3.45v5.83h1.49V4.94h-1.62Zm4.85,1.67c.57,0,.96-.43.96-1.03s-.39-1.01-.96-1.01-.98.43-.98,1.01.39,1.03.98,1.03Zm.71,2.06h-1.44v8.53h1.44v-8.53Zm5.38,1.01c.99,0,1.47.59,1.47,2.03v5.49h1.44v-5.6c0-2.31-.96-3.14-2.49-3.14-1.33,0-2.1.87-2.26,1.17h-.04v-.96h-1.31v8.53h1.44v-6.57c.28-.36.87-.94,1.74-.94Zm5.79-3.07c.57,0,.96-.43.96-1.03s-.39-1.01-.96-1.01-.98.43-.98,1.01.39,1.03.98,1.03Zm.71,2.06h-1.44v8.53h1.44v-8.53Zm6.5.69c-.28-.28-.85-.91-2.17-.91-1.39,0-2.47.94-2.47,2.2,0,1.17.64,1.87,1.71,2.54l.53.34c.82.52,1.24.8,1.24,1.62,0,.55-.46.98-1.31.98-.92,0-1.46-.55-1.72-.83l-.69,1.14c.34.36,1.03.98,2.4.98,1.74,0,2.72-1.05,2.72-2.4,0-1.26-.71-1.95-1.87-2.65l-.53-.32c-.76-.46-1.12-.82-1.12-1.46,0-.5.41-.91,1.17-.91s1.3.5,1.49.71l.62-1.03Zm5.79,7.67l-.2-1.15c-.14.09-.46.25-.89.25-.73,0-1.01-.36-1.01-1.56v-4.73h1.87l.18-1.17h-2.04v-2.38h-1.28l-.16,2.38-1.03.21v.96h1.03v4.92c0,1.88.75,2.65,2.2,2.65.76,0,1.21-.28,1.33-.37Zm5.33-8.39c-.14-.05-.37-.14-.78-.14-1.08,0-1.55.64-1.79,1.31h-.04v-1.15h-1.31v8.53h1.44v-6.25c.21-.57.69-1.15,1.6-1.15.39,0,.64.11.71.14l.18-1.28Zm5.51.02l-1.21,4.74c-.25.96-.46,1.81-.5,2.47h-.04c-.04-.66-.28-1.53-.55-2.49l-1.33-4.73h-1.55l2.75,8.51-.12.44c-.37,1.31-.83,1.95-1.85,1.95-.3,0-.5-.07-.6-.12v1.24c.09.05.34.16.69.16,1.69,0,2.43-1.08,3.06-3.16l2.66-9.02h-1.42Z"/><path d="m60.6,30.7c0,3.2,1.44,4.48,3.32,4.48s3.41-1.3,3.41-4.48-1.44-4.48-3.32-4.48-3.41,1.33-3.41,4.48Zm5.24,0c0,2.26-.69,3.2-1.87,3.2s-1.88-.94-1.88-3.2.69-3.25,1.87-3.25,1.88.99,1.88,3.25Zm6.79-3.09l.18-1.17h-1.92v-1.53c0-1.12.37-1.49,1.05-1.49.37,0,.64.14.78.23l.3-1.19c-.14-.09-.6-.32-1.21-.32-1.26,0-2.36.75-2.36,2.61v1.71l-1.03.2v.96h1.03v7.35h1.44v-7.35h1.74Zm6.56,2.26l1.01-3.39c.27-.91.5-1.74.52-2.27h.04c.02.53.25,1.42.5,2.31l.96,3.36h-3.02Zm2.17-7.16h-1.21l-4,12.26h1.56l1.12-3.93h3.71l1.1,3.93h1.71l-4-12.26Zm9.26,6.38c0,1.23-.68,1.71-1.49,1.71s-1.47-.48-1.47-1.71.69-1.71,1.51-1.71,1.46.48,1.46,1.71Zm2.1,6.54c0-1.62-1.21-2.26-2.82-2.26h-1.08c-.62,0-.87-.25-.87-.6,0-.44.41-.68.69-.8.14.02.28.02.44.02,1.67,0,2.95-1.08,2.95-2.9,0-.57-.14-1.1-.41-1.53h1.07l.2-1.12h-2.59c-.36-.14-.73-.21-1.14-.21-1.6,0-2.9.94-2.9,2.86,0,1.35.59,2.2,1.46,2.61v.04c-.21.11-1.03.46-1.03,1.39,0,.53.2.92.55,1.19v.04c-.39.21-1.42.82-1.42,2.08,0,1.47.98,2.31,2.79,2.31,2.52,0,4.12-1.28,4.12-3.11Zm-4.01,1.88c-1.01,0-1.51-.46-1.51-1.37,0-.85.46-1.26.87-1.49.2.04.43.05.66.05h1.08c.87,0,1.44.32,1.44,1.14,0,.87-.8,1.67-2.54,1.67Zm9.54-11.09c-.14-.05-.37-.14-.78-.14-1.08,0-1.55.64-1.79,1.31h-.04v-1.15h-1.31v8.53h1.44v-6.25c.21-.57.69-1.15,1.6-1.15.39,0,.64.11.71.14l.18-1.28Zm1.97-2.04c.57,0,.96-.43.96-1.03s-.39-1.01-.96-1.01-.98.43-.98,1.01.39,1.03.98,1.03Zm.71,2.06h-1.44v8.53h1.44v-8.53Zm7.55.64c-.27-.3-.87-.85-2.17-.85-1.69,0-3.57,1.19-3.57,4.46s1.51,4.49,3.41,4.49c1.33,0,1.99-.62,2.22-.89l-.59-.99c-.18.2-.62.6-1.49.6-1.23,0-2.06-.82-2.06-3.32,0-2.26.96-3.13,2.19-3.13.85,0,1.3.48,1.46.64l.6-1.01Zm6.13,6.93h.04v.96h1.31v-8.53h-1.44v6.52c-.28.36-.85.94-1.72.94-.96,0-1.42-.57-1.42-1.97v-5.49h-1.44v5.6c0,2.31.94,3.14,2.45,3.14,1.3,0,2.06-.87,2.22-1.17Zm4.97-11.76l-1.44.16v10.69c0,1.51.66,2.03,1.62,2.03.64,0,1.01-.16,1.15-.23l-.12-1.07c-.09.04-.27.11-.53.11-.5,0-.68-.25-.68-.96v-10.73Zm6.5,12.56l-.2-1.15c-.14.09-.46.25-.89.25-.73,0-1.01-.36-1.01-1.56v-4.73h1.87l.18-1.17h-2.04v-2.38h-1.28l-.16,2.38-1.03.21v.96h1.03v4.92c0,1.88.75,2.65,2.2,2.65.76,0,1.21-.28,1.33-.37Zm6.02-.8h.04v.96h1.31v-8.53h-1.44v6.52c-.28.36-.85.94-1.72.94-.96,0-1.42-.57-1.42-1.97v-5.49h-1.44v5.6c0,2.31.94,3.14,2.45,3.14,1.3,0,2.06-.87,2.22-1.17Zm7.48-7.59c-.14-.05-.37-.14-.78-.14-1.08,0-1.55.64-1.79,1.31h-.04v-1.15h-1.31v8.53h1.44v-6.25c.21-.57.69-1.15,1.6-1.15.39,0,.64.11.71.14l.18-1.28Zm3.8.98c.91,0,1.39.69,1.39,1.87,0,.27-.02.5-.04.62h-3.09c.07-1.6.73-2.49,1.74-2.49Zm2.88,6.77l-.53-1.01c-.2.2-.78.75-1.79.75-1.44,0-2.22-.94-2.31-2.93h4.35c.05-.41.11-.92.11-1.65,0-2.04-.99-3.09-2.61-3.09-1.78,0-3.25,1.35-3.25,4.37,0,3.22,1.35,4.58,3.5,4.58,1.62,0,2.31-.76,2.54-1.01Zm1.55,3.29c.94-.34,2.06-1.1,2.06-2.72,0-1.17-.48-1.74-1.17-1.74-.5,0-.92.32-.92.96s.43,1.01.98,1.01h.05c0,1.03-.55,1.49-1.3,1.87l.3.62Zm9.18-2.49v-5.28h4.03v-1.23h-4.03v-4.53h4.37l.11-1.23h-6.02v12.26h1.55Zm5.56-4.26c0,3.2,1.44,4.48,3.32,4.48s3.41-1.3,3.41-4.48-1.44-4.48-3.32-4.48-3.41,1.33-3.41,4.48Zm5.24,0c0,2.26-.69,3.2-1.87,3.2s-1.88-.94-1.88-3.2.69-3.25,1.87-3.25,1.88.99,1.88,3.25Zm2.91,0c0,3.2,1.44,4.48,3.32,4.48s3.41-1.3,3.41-4.48-1.44-4.48-3.32-4.48-3.41,1.33-3.41,4.48Zm5.24,0c0,2.26-.69,3.2-1.87,3.2s-1.88-.94-1.88-3.2.69-3.25,1.87-3.25,1.88.99,1.88,3.25Zm6.29,3.2c-.99,0-1.88-.78-1.88-3.13s1.05-3.27,2.38-3.27c.52,0,.85.14,1.1.3v5.26c-.2.28-.69.83-1.6.83Zm1.69.16h.04v.91h1.31v-12.72l-1.44.16v4.09c-.27-.11-.66-.21-1.21-.21-1.81,0-3.77,1.1-3.77,4.55,0,3.11,1.37,4.35,2.98,4.35,1.35,0,1.92-.85,2.08-1.12Z"/><path d="m64.49,47.93h-.44c-1.94,0-3.55.66-3.55,2.63,0,1.39.98,2.38,2.27,2.38,1.08,0,1.6-.73,1.79-1.15h.04c.02.43.04.69.05.94h1.37c-.04-.23-.11-1.05-.11-1.78v-3.89c0-2.15-.92-3.07-2.66-3.07-1.37,0-2.19.66-2.56,1.03l.6.96c.32-.28.89-.76,1.74-.76.92,0,1.46.46,1.46,1.9v.82Zm0,1.07v1.88c-.18.27-.59.83-1.42.83-.71,0-1.14-.44-1.14-1.31,0-.94.73-1.33,2.1-1.39l.46-.02Zm6.77-3.78c.99,0,1.47.59,1.47,2.03v5.49h1.44v-5.6c0-2.31-.96-3.14-2.49-3.14-1.33,0-2.1.87-2.26,1.17h-.04v-.96h-1.31v8.53h1.44v-6.57c.28-.36.87-.94,1.74-.94Zm8.05,6.45c-.99,0-1.88-.78-1.88-3.13s1.05-3.27,2.38-3.27c.52,0,.85.14,1.1.3v5.26c-.2.28-.69.83-1.6.83Zm1.69.16h.04v.91h1.31v-12.72l-1.44.16v4.09c-.27-.11-.66-.21-1.21-.21-1.81,0-3.77,1.1-3.77,4.55,0,3.11,1.37,4.35,2.98,4.35,1.35,0,1.92-.85,2.08-1.12Zm12.6-7.83c0,1.6-.89,2.52-2.75,2.52h-.68v-4.81h.75c1.83,0,2.68.75,2.68,2.29Zm-3.43,3.75h.68c.28,0,.57-.02.83-.04l2.54,5.03h1.81l-2.88-5.4c1.4-.6,2.1-1.83,2.1-3.43,0-2.26-1.39-3.43-4.33-3.43h-2.29v12.26h1.55v-4.99Zm9.91-2.58c.91,0,1.39.69,1.39,1.87,0,.27-.02.5-.04.62h-3.09c.07-1.6.73-2.49,1.74-2.49Zm2.88,6.77l-.53-1.01c-.2.2-.78.75-1.79.75-1.44,0-2.22-.94-2.31-2.93h4.35c.05-.41.11-.92.11-1.65,0-2.04-.99-3.09-2.61-3.09-1.78,0-3.25,1.35-3.25,4.37,0,3.22,1.35,4.58,3.5,4.58,1.62,0,2.31-.76,2.54-1.01Zm5.79-5.08c0,1.23-.68,1.71-1.49,1.71s-1.47-.48-1.47-1.71.69-1.71,1.51-1.71,1.46.48,1.46,1.71Zm2.1,6.54c0-1.62-1.21-2.26-2.82-2.26h-1.08c-.62,0-.87-.25-.87-.6,0-.44.41-.68.69-.8.14.02.28.02.44.02,1.67,0,2.95-1.08,2.95-2.9,0-.57-.14-1.1-.41-1.53h1.07l.2-1.12h-2.59c-.36-.14-.73-.21-1.14-.21-1.6,0-2.9.94-2.9,2.86,0,1.35.59,2.2,1.46,2.61v.04c-.21.11-1.03.46-1.03,1.39,0,.53.2.92.55,1.19v.04c-.39.21-1.42.82-1.42,2.08,0,1.47.98,2.31,2.79,2.31,2.52,0,4.12-1.28,4.12-3.11Zm-4.01,1.88c-1.01,0-1.51-.46-1.51-1.37,0-.85.46-1.26.87-1.49.2.04.43.05.66.05h1.08c.87,0,1.44.32,1.44,1.14,0,.87-.8,1.67-2.54,1.67Zm6.34-13.13c.57,0,.96-.43.96-1.03s-.39-1.01-.96-1.01-.98.43-.98,1.01.39,1.03.98,1.03Zm.71,2.06h-1.44v8.53h1.44v-8.53Zm1.81,4.26c0,3.2,1.44,4.48,3.32,4.48s3.41-1.3,3.41-4.48-1.44-4.48-3.32-4.48-3.41,1.33-3.41,4.48Zm5.24,0c0,2.26-.69,3.2-1.87,3.2s-1.88-.94-1.88-3.2.69-3.25,1.87-3.25,1.88.99,1.88,3.25Zm6.48-3.25c.99,0,1.47.59,1.47,2.03v5.49h1.44v-5.6c0-2.31-.96-3.14-2.49-3.14-1.33,0-2.1.87-2.26,1.17h-.04v-.96h-1.31v8.53h1.44v-6.57c.28-.36.87-.94,1.74-.94Zm8.56,2.72h-.44c-1.94,0-3.55.66-3.55,2.63,0,1.39.98,2.38,2.27,2.38,1.08,0,1.6-.73,1.79-1.15h.04c.02.43.04.69.05.94h1.37c-.04-.23-.11-1.05-.11-1.78v-3.89c0-2.15-.92-3.07-2.66-3.07-1.37,0-2.19.66-2.56,1.03l.6.96c.32-.28.89-.76,1.74-.76.92,0,1.46.46,1.46,1.9v.82Zm0,1.07v1.88c-.18.27-.59.83-1.42.83-.71,0-1.14-.44-1.14-1.31,0-.94.73-1.33,2.1-1.39l.46-.02Zm5.01-8.99l-1.44.16v10.69c0,1.51.66,2.03,1.62,2.03.64,0,1.01-.16,1.15-.23l-.12-1.07c-.09.04-.27.11-.53.11-.5,0-.68-.25-.68-.96v-10.73Zm7.32,11.6h-1.33v1.12h4.21v-1.12h-1.33v-10.07h1.3v-1.07h-4.14v1.07h1.3v10.07Zm7.44.05c-.99,0-1.88-.78-1.88-3.13s1.05-3.27,2.38-3.27c.52,0,.85.14,1.1.3v5.26c-.2.28-.69.83-1.6.83Zm1.69.16h.04v.91h1.31v-12.72l-1.44.16v4.09c-.27-.11-.66-.21-1.21-.21-1.81,0-3.77,1.1-3.77,4.55,0,3.11,1.37,4.35,2.98,4.35,1.35,0,1.92-.85,2.08-1.12Zm6.32-6.66c.91,0,1.39.69,1.39,1.87,0,.27-.02.5-.04.62h-3.09c.07-1.6.73-2.49,1.74-2.49Zm2.88,6.77l-.53-1.01c-.2.2-.78.75-1.79.75-1.44,0-2.22-.94-2.31-2.93h4.35c.05-.41.11-.92.11-1.65,0-2.04-.99-3.09-2.61-3.09-1.78,0-3.25,1.35-3.25,4.37,0,3.22,1.35,4.58,3.5,4.58,1.62,0,2.31-.76,2.54-1.01Zm4.92-6.72c.99,0,1.47.59,1.47,2.03v5.49h1.44v-5.6c0-2.31-.96-3.14-2.49-3.14-1.33,0-2.1.87-2.26,1.17h-.04v-.96h-1.31v8.53h1.44v-6.57c.28-.36.87-.94,1.74-.94Zm8.94,7.35l-.2-1.15c-.14.09-.46.25-.89.25-.73,0-1.01-.36-1.01-1.56v-4.73h1.87l.18-1.17h-2.04v-2.38h-1.28l-.16,2.38-1.03.21v.96h1.03v4.92c0,1.88.75,2.65,2.2,2.65.76,0,1.21-.28,1.33-.37Zm2.13-10.43c.57,0,.96-.43.96-1.03s-.39-1.01-.96-1.01-.98.43-.98,1.01.39,1.03.98,1.03Zm.71,2.06h-1.44v8.53h1.44v-8.53Zm6.08,8.37l-.2-1.15c-.14.09-.46.25-.89.25-.73,0-1.01-.36-1.01-1.56v-4.73h1.87l.18-1.17h-2.04v-2.38h-1.28l-.16,2.38-1.03.21v.96h1.03v4.92c0,1.88.75,2.65,2.2,2.65.76,0,1.21-.28,1.33-.37Zm5.67-8.37l-1.21,4.74c-.25.96-.46,1.81-.5,2.47h-.04c-.04-.66-.28-1.53-.55-2.49l-1.33-4.73h-1.55l2.75,8.51-.12.44c-.37,1.31-.83,1.95-1.85,1.95-.3,0-.5-.07-.6-.12v1.24c.09.05.34.16.69.16,1.69,0,2.43-1.08,3.06-3.16l2.66-9.02h-1.42Z"/></svg>