<svg xmlns="http://www.w3.org/2000/svg" width="117" height="44" viewBox="0 0 117 44"><defs><mask id="qck0b" width="2" height="2" x="-1" y="-1"><path fill="#fff" d="M2 1h114v40H2z"/><path d="M2.436 5.048c0-2 2-4 4-4h104.667c2 0 4 2 4 4v32c0 2-2 4-4 4H6.436c-2 0-4-2-4-4z"/></mask><filter id="qck0a" width="138" height="65" x="-10" y="-11" filterUnits="userSpaceOnUse"><feOffset dy="1" in="SourceGraphic" result="FeOffset1294Out"/><feGaussianBlur in="FeOffset1294Out" result="FeGaussianBlur1295Out" stdDeviation="0.8 0.8"/></filter><linearGradient id="qck0c" x1="58.77" x2="58.77" y1="1.05" y2="41.05" gradientUnits="userSpaceOnUse"><stop offset="0" stop-color="#f6f6f6"/><stop offset="1" stop-color="#efedef"/></linearGradient><clipPath id="qck0d"><path fill="#fff" d="M2.436 5.048c0-2 2-4 4-4h104.667c2 0 4 2 4 4v32c0 2-2 4-4 4H6.436c-2 0-4-2-4-4z"/></clipPath></defs><g><g><g><g filter="url(#qck0a)"><path fill="none" d="M2.436 5.048c0-2 2-4 4-4h104.667c2 0 4 2 4 4v32c0 2-2 4-4 4H6.436c-2 0-4-2-4-4z" mask="url(&quot;#qck0b&quot;)"/><path fill-opacity=".16" d="M2.436 5.048c0-2 2-4 4-4h104.667c2 0 4 2 4 4v32c0 2-2 4-4 4H6.436c-2 0-4-2-4-4z"/></g><path fill="url(#qck0c)" d="M2.436 5.048c0-2 2-4 4-4h104.667c2 0 4 2 4 4v32c0 2-2 4-4 4H6.436c-2 0-4-2-4-4z"/><path fill="none" stroke="#dcdbdd" stroke-miterlimit="50" stroke-width="2" d="M2.436 5.048c0-2 2-4 4-4h104.667c2 0 4 2 4 4v32c0 2-2 4-4 4H6.436c-2 0-4-2-4-4z" clip-path="url(&quot;#qck0d&quot;)"/></g><g><g><path fill="#2b3438" d="M51.363 20.709v11.327h-.92V20.71h-3.617v-.819h8.17v.819z"/></g><g><path fill="#2b3438" d="M64.017 32.036v-5.715h-6.33v5.715h-.92V19.89h.92v5.613h6.33V19.89h.922v12.146z"/></g><g><g><path fill="#2b3438" d="M71.97 32.139c-2.44 0-4.162-1.672-4.162-4.043V19.89h.92v8.087c0 2.012 1.297 3.343 3.242 3.343s3.241-1.33 3.241-3.343V19.89h.922v8.206c0 2.371-1.723 4.043-4.163 4.043"/></g><g><path fill="#2b3438" d="M86.9 32.036l-7.014-10.56v10.56h-.922V19.89h.922L86.9 30.417V19.89h.921v12.146z"/></g><g><path fill="#2b3438" d="M90.029 32.036V19.89h7.37v.819H90.95v4.794h5.493v.818H90.95v4.897h6.45v.818z"/></g><g><path fill="#2b3438" d="M108.335 32.036l-7.013-10.56v10.56h-.921V19.89h.921l7.013 10.527V19.89h.92v12.146z"/></g><g><path fill="#2b3438" d="M70.943 19.133a.664.664 0 1 1-1.329 0 .664.664 0 0 1 1.33 0"/></g><g><path fill="#2b3438" d="M74.503 19.133a.664.664 0 1 1-1.327.002.664.664 0 0 1 1.327-.002"/></g><g><path fill="none" stroke="#2b3438" stroke-miterlimit="50" stroke-width=".35" d="M41.887 6.107v27.76"/></g><g><path fill="#73aa17" d="M36.627 10.512a3.713 3.713 0 0 1-3.715 3.715 3.714 3.714 0 1 1 0-7.43 3.713 3.713 0 0 1 3.715 3.715"/></g><g><path fill="#129b70" d="M27.973 10.512a3.316 3.316 0 1 1-6.634 0 3.316 3.316 0 1 1 6.634 0"/></g><g><path fill="#009496" d="M28.37 18.759a3.715 3.715 0 1 1-7.43.003 3.715 3.715 0 0 1 7.43-.003"/></g><g><path fill="#0090df" d="M29.3 27.826a4.644 4.644 0 1 1-9.287.001 4.644 4.644 0 0 1 9.287-.001"/></g><g><path fill="#009496" d="M18.544 10.512a4.64 4.64 0 0 1-4.644 4.643 4.643 4.643 0 1 1 0-9.288 4.642 4.642 0 0 1 4.644 4.645"/></g><g><path fill="#0090df" d="M15.624 19.228a1.726 1.726 0 1 1-3.451.002 1.726 1.726 0 0 1 3.451-.002"/></g><g><path fill="#007bca" d="M14.96 28.23a1.06 1.06 0 1 1-2.121.003 1.06 1.06 0 0 1 2.122-.003"/></g><g><path fill="#009496" d="M34.35 27.867a1.526 1.526 0 1 1-3.052-.001 1.526 1.526 0 0 1 3.052.002"/></g><g><path fill="#129b70" d="M33.593 19.224a.797.797 0 1 1-1.593 0 .797.797 0 0 1 1.593 0"/></g></g></g></g></g></svg>